<svg id="Capa_1" enable-background="new 0 0 512 512" height="512" viewBox="0 0 512 512" width="512" xmlns="http://www.w3.org/2000/svg"><g><path d="m497 482h-15v-407c0-7.154-5.052-13.312-12.068-14.71l-301-60c-4.405-.879-8.973.264-12.446 3.113s-5.486 7.105-5.486 11.597v226h-61v-105c0-8.284-6.716-15-15-15s-15 6.716-15 15v105h-15c-8.284 0-15 6.716-15 15v226h-15c-8.284 0-15 6.716-15 15s6.716 15 15 15h482c8.284 0 15-6.716 15-15s-6.716-15-15-15zm-316-448.715 271 54.02v394.695h-91v-32.509c34.192-6.968 60-37.271 60-73.491 0-39.497-30.973-105-75-105-43.911 0-75 65.462-75 105 0 36.219 25.808 66.522 60 73.491v32.509h-90v-226c0-8.284-6.716-15-15-15h-45zm165 387.715c-24.813 0-45-20.187-45-45 0-28.175 23.752-75 45-75 21.419 0 45 47.035 45 75 0 24.813-20.187 45-45 45zm-286-150h151v211h-151z"/><path d="m105 331h61c8.284 0 15-6.716 15-15s-6.716-15-15-15h-61c-8.284 0-15 6.716-15 15s6.716 15 15 15z"/><path d="m166 361h-61c-8.284 0-15 6.716-15 15s6.716 15 15 15h61c8.284 0 15-6.716 15-15s-6.716-15-15-15z"/><path d="m166 421h-61c-8.284 0-15 6.716-15 15s6.716 15 15 15h61c8.284 0 15-6.716 15-15s-6.716-15-15-15z"/><path d="m226 121h60c8.284 0 15-6.716 15-15s-6.716-15-15-15h-60c-8.284 0-15 6.716-15 15s6.716 15 15 15z"/><path d="m286 181c8.284 0 15-6.716 15-15s-6.716-15-15-15h-60c-8.284 0-15 6.716-15 15s6.716 15 15 15z"/><path d="m346 181h60c8.284 0 15-6.716 15-15s-6.716-15-15-15h-60c-8.284 0-15 6.716-15 15s6.716 15 15 15z"/><path d="m346 241h60c8.284 0 15-6.716 15-15s-6.716-15-15-15h-60c-8.284 0-15 6.716-15 15s6.716 15 15 15z"/></g></svg>