<svg id="Layer_3" enable-background="new 0 0 64 64" height="512" viewBox="0 0 64 64" width="512" xmlns="http://www.w3.org/2000/svg"><g><path d="m27 29.029c0-2.212-1.794-4.012-4-4.012s-4 1.8-4 4.012 1.794 4.013 4 4.013 4-1.801 4-4.013zm-4 2.013c-1.103 0-2-.903-2-2.013 0-1.109.897-2.012 2-2.012s2 .903 2 2.012c0 1.11-.897 2.013-2 2.013z"/><path d="m31 29.116c0-4.475-3.589-8.116-8-8.116s-8 3.641-8 8.116c0 3.303 2.022 6.294 5 7.521v5.326h-3c-.553 0-1 .448-1 1v4.017c0 .552.447 1 1 1h3v4.02c0 .552.447 1 1 1h4c.553 0 1-.448 1-1v-4.021h3c.553 0 1-.448 1-1v-4.017c0-.552-.447-1-1-1h-3v-5.326c2.978-1.226 5-4.217 5-7.52zm-6 14.847h3v2.017h-3c-.553 0-1 .448-1 1v4.02h-2v-4.021c0-.552-.447-1-1-1h-3v-2.017h3c.553 0 1-.448 1-1v-7.029c0-.44-.288-.829-.71-.957-2.526-.765-4.29-3.175-4.29-5.86 0-3.372 2.691-6.116 6-6.116s6 2.744 6 6.116c0 2.686-1.764 5.095-4.29 5.86-.422.128-.71.517-.71.958v7.029c0 .552.447 1 1 1z"/><path d="m40 41c-2.206 0-4 1.794-4 4s1.794 4 4 4 4-1.794 4-4-1.794-4-4-4zm0 6c-1.103 0-2-.897-2-2s.897-2 2-2 2 .897 2 2-.897 2-2 2z"/><path d="m43 37.419v-8.419h3c.404 0 .77-.244.924-.617.155-.374.069-.804-.217-1.09l-6-6c-.391-.391-1.023-.391-1.414 0l-6 6c-.286.286-.372.716-.217 1.09.154.373.52.617.924.617h3v8.419c-2.978 1.223-5 4.203-5 7.494 0 4.459 3.589 8.087 8 8.087s8-3.628 8-8.087c0-3.291-2.022-6.271-5-7.494zm-3 13.581c-3.309 0-6-2.73-6-6.087 0-2.672 1.764-5.07 4.289-5.832.422-.127.711-.516.711-.957v-10.124c0-.552-.447-1-1-1h-1.586l3.586-3.586 3.586 3.586h-1.586c-.553 0-1 .448-1 1v10.124c0 .441.289.83.711.958 2.525.761 4.289 3.159 4.289 5.831 0 3.357-2.691 6.087-6 6.087z"/><path d="m32 1c-17.094 0-31 13.907-31 31s13.906 31 31 31 31-13.907 31-31-13.906-31-31-31zm0 60c-15.99 0-29-13.009-29-29s13.01-29 29-29 29 13.009 29 29-13.01 29-29 29z"/><path d="m32 5c-14.888 0-27 12.112-27 27s12.112 27 27 27 27-12.112 27-27-12.112-27-27-27zm0 52c-13.785 0-25-11.215-25-25s11.215-25 25-25 25 11.215 25 25-11.215 25-25 25z"/><path d="m32.707 22.707 4.586-4.586c1.101-1.1 1.707-2.564 1.707-4.121v-.171c0-1.446-.563-2.806-1.586-3.829-1.291-1.289-3.537-1.29-4.828 0l-.586.586-.586-.586c-1.291-1.289-3.537-1.29-4.828 0-1.023 1.022-1.586 2.382-1.586 3.829v.171c0 1.557.606 3.021 1.707 4.121l4.586 4.586c.195.195.451.293.707.293s.512-.098.707-.293zm-4.586-6c-.723-.723-1.121-1.685-1.121-2.707v-.171c0-.912.355-1.77 1-2.414.268-.268.622-.415 1-.415s.732.147 1 .414l1.293 1.293c.391.391 1.023.391 1.414 0l1.293-1.292c.535-.535 1.465-.535 2 0 .645.645 1 1.502 1 2.415v.17c0 1.022-.398 1.984-1.121 2.707l-3.879 3.879z"/></g></svg>